<?xml version="1.0" standalone="no"?>
<!DOCTYPE svg PUBLIC "-//W3C//DTD SVG 20010904//EN"
 "http://www.w3.org/TR/2001/REC-SVG-20010904/DTD/svg10.dtd">
<svg version="1.0" xmlns="http://www.w3.org/2000/svg"
 width="192.000000pt" height="192.000000pt" viewBox="0 0 192.000000 192.000000"
 preserveAspectRatio="xMidYMid meet">

<g transform="translate(0.000000,192.000000) scale(0.100000,-0.100000)"
fill="#000000" stroke="none">
<path d="M130 985 l0 -825 825 0 825 0 0 825 0 825 -825 0 -825 0 0 -825z
m1620 341 c0 -397 -2 -455 -15 -466 -20 -17 -183 -19 -217 -4 -12 6 -34 16
-48 21 -35 15 -118 52 -163 74 -22 11 -47 19 -57 19 -11 0 -22 5 -25 10 -3 6
-16 10 -29 10 -12 0 -26 4 -31 9 -18 17 -100 23 -322 25 -159 1 -226 5 -235
14 -7 7 -20 12 -29 12 -22 0 -122 53 -151 79 -12 12 -26 21 -30 21 -5 0 -18 9
-30 20 -12 11 -28 20 -35 20 -7 0 -13 5 -13 10 0 6 -9 10 -19 10 -11 0 -23 5
-26 10 -3 6 -22 10 -41 10 -77 0 -74 -11 -74 285 l0 265 795 0 795 0 0 -454z
m-1395 -281 c22 -9 81 -36 130 -60 190 -90 179 -87 284 -82 53 3 121 11 151
17 95 19 176 23 217 10 50 -15 157 -68 180 -89 47 -43 160 -121 175 -121 9 0
20 -4 23 -10 3 -5 46 -10 95 -10 49 0 92 5 95 10 3 6 15 10 26 10 14 0 19 -7
19 -29 0 -43 -42 -61 -141 -61 -55 0 -91 6 -124 20 -42 18 -133 74 -145 90 -9
12 -155 106 -183 118 -32 14 -165 16 -199 3 -88 -34 -257 -46 -318 -22 -19 7
-89 39 -155 71 -164 79 -176 83 -255 82 l-70 0 0 33 c0 27 5 35 23 39 37 8
131 -2 172 -19z m-148 -202 c68 -44 138 -52 296 -32 135 18 264 -4 372 -64 78
-42 126 -64 165 -76 25 -7 58 -17 74 -22 16 -5 89 -9 162 -9 77 0 145 -5 161
-11 37 -15 84 -35 131 -55 77 -33 141 -54 165 -54 12 0 17 -9 17 -29 0 -37
-13 -46 -48 -33 -15 5 -45 15 -67 21 -45 14 -61 20 -125 48 -89 40 -102 43
-179 43 -98 0 -279 17 -306 29 -11 5 -67 31 -125 59 -191 91 -196 92 -436 89
-204 -2 -211 -1 -257 22 -42 21 -47 28 -47 58 0 37 9 41 47 16z m-1 -177 c29
-14 91 -41 129 -56 80 -32 176 -35 439 -14 81 7 142 -5 246 -48 57 -24 67 -28
110 -42 42 -13 108 -37 155 -56 58 -23 116 -30 247 -30 175 0 218 -12 218 -60
0 -23 -5 -30 -19 -30 -11 0 -23 5 -26 10 -4 6 -69 10 -162 10 -141 0 -199 7
-258 30 -11 4 -36 13 -55 20 -19 7 -44 16 -55 20 -11 4 -36 13 -55 20 -19 7
-44 16 -55 20 -163 65 -204 74 -322 65 -274 -21 -389 -7 -528 61 -51 24 -55
29 -55 60 0 38 4 40 46 20z m6 -144 c43 -24 96 -32 308 -42 96 -5 191 -11 210
-15 39 -7 133 -50 153 -69 20 -20 99 -71 142 -92 35 -17 63 -19 241 -19 129 0
210 -5 225 -12 13 -6 47 -22 76 -35 51 -22 69 -41 57 -59 -6 -10 -67 -12 -78
-2 -25 26 -91 34 -266 33 -228 0 -246 4 -379 95 -142 97 -169 105 -338 105
-176 0 -352 24 -390 53 -15 11 -18 77 -3 77 5 0 24 -8 42 -18z m56 -211 c29
-6 95 -11 147 -11 52 0 107 -5 122 -11 67 -27 79 -32 99 -41 11 -5 33 -20 49
-32 54 -43 1 -62 -78 -27 -86 38 -99 41 -156 41 -84 0 -221 19 -258 36 -26 12
-33 21 -33 43 0 37 9 44 34 27 12 -7 45 -18 74 -25z"/>
</g>
</svg>
