<?xml version="1.0" standalone="no"?>
<!DOCTYPE svg PUBLIC "-//W3C//DTD SVG 20010904//EN"
 "http://www.w3.org/TR/2001/REC-SVG-20010904/DTD/svg10.dtd">
<svg version="1.0" xmlns="http://www.w3.org/2000/svg"
 width="339.000000pt" height="350.000000pt" viewBox="0 0 339.000000 350.000000"
 preserveAspectRatio="xMidYMid meet">

<g transform="translate(0.000000,350.000000) scale(0.100000,-0.100000)"
fill="#000000" stroke="none">
<path d="M1666 3469 c-74 -88 -82 -137 -51 -323 13 -83 28 -180 32 -216 l8
-65 40 0 40 0 22 150 c37 254 41 293 33 329 -9 42 -50 113 -78 139 -19 17 -20
17 -46 -14z"/>
<path d="M1424 3449 c-25 -40 -32 -119 -18 -199 13 -71 64 -322 79 -387 6 -26
41 -31 68 -10 14 11 15 22 2 132 -8 66 -17 167 -20 225 -4 58 -13 123 -21 146
-17 49 -78 112 -90 93z"/>
<path d="M1922 3427 c-42 -44 -62 -96 -62 -164 0 -32 -7 -121 -15 -198 -19
-180 -19 -211 1 -219 29 -11 53 -6 58 12 10 31 84 386 91 434 7 46 -15 151
-34 162 -4 3 -22 -9 -39 -27z"/>
<path d="M1177 3383 c-13 -22 -17 -107 -7 -145 6 -24 48 -136 92 -250 l81
-207 31 13 c20 8 31 19 30 32 -2 29 -113 443 -125 468 -24 46 -92 105 -102 89z"/>
<path d="M2174 3365 c-48 -37 -64 -69 -95 -186 -16 -60 -42 -158 -58 -217 -15
-59 -31 -118 -35 -129 -6 -18 -1 -25 25 -38 26 -14 33 -15 40 -3 5 7 45 108
91 223 75 192 82 216 82 282 1 88 -8 101 -50 68z"/>
<path d="M917 3284 c-11 -11 -8 -109 4 -141 5 -15 43 -77 83 -138 41 -60 97
-152 126 -203 29 -51 56 -95 61 -98 10 -6 67 25 72 40 5 12 -169 419 -196 459
-31 47 -130 100 -150 81z"/>
<path d="M2420 3279 c-46 -19 -90 -60 -114 -107 -36 -72 -176 -410 -176 -425
0 -14 66 -56 73 -47 2 3 29 51 61 107 31 57 90 152 131 213 77 115 89 145 83
220 -3 49 -15 56 -58 39z"/>
<path d="M664 3094 c-4 -20 -4 -65 -1 -100 8 -100 46 -150 209 -272 73 -55
142 -109 152 -121 25 -28 37 -27 71 9 27 28 28 33 15 53 -20 32 -84 163 -111
227 -51 123 -117 189 -218 220 -94 29 -109 27 -117 -16z"/>
<path d="M2605 3110 c-67 -22 -134 -72 -170 -131 -14 -21 -43 -82 -65 -136
-23 -54 -52 -117 -66 -140 -13 -23 -24 -50 -24 -61 0 -18 38 -62 54 -62 4 0
36 24 69 53 34 30 104 84 155 121 92 68 139 121 160 185 13 36 16 148 6 175
-8 21 -44 20 -119 -4z"/>
<path d="M458 2915 c-8 -8 10 -81 26 -114 8 -14 29 -40 48 -57 45 -43 397
-304 409 -304 10 0 51 61 46 71 -1 3 -36 35 -77 70 -41 35 -129 118 -195 185
-107 109 -126 124 -174 138 -59 17 -75 19 -83 11z"/>
<path d="M2865 2911 c-55 -14 -90 -39 -170 -123 -44 -45 -127 -127 -185 -180
-98 -92 -103 -99 -95 -124 21 -59 29 -55 241 103 110 82 212 164 226 182 28
33 62 126 52 142 -6 10 -26 10 -69 0z"/>
<path d="M1669 2783 c-5 -15 -17 -58 -25 -96 -19 -90 -23 -96 -102 -162 -105
-89 -192 -176 -218 -220 -22 -38 -23 -46 -13 -105 13 -81 39 -160 94 -280 24
-52 46 -113 50 -135 13 -79 35 -171 55 -229 46 -135 36 -236 -36 -343 -24 -36
-44 -70 -44 -74 0 -5 -44 -9 -97 -9 -105 0 -259 -27 -311 -54 -59 -30 -80 -96
-47 -144 24 -33 114 -55 225 -54 112 0 213 20 353 68 107 37 407 179 407 193
0 5 -20 38 -44 74 -74 111 -83 216 -30 369 14 40 32 111 40 158 8 48 31 120
51 165 64 142 103 265 103 327 0 50 -4 61 -39 106 -21 27 -72 78 -111 113
-175 154 -160 134 -189 250 -20 78 -30 105 -43 107 -12 2 -22 -6 -29 -25z
m121 -303 c114 -128 170 -207 170 -243 0 -41 -49 -182 -84 -241 -48 -81 -106
-96 -119 -29 -7 35 4 63 42 106 17 19 31 45 31 58 1 63 -30 159 -52 159 -5 0
-8 11 -8 24 0 28 -42 66 -72 66 -22 0 -60 -18 -70 -34 -4 -6 -8 -21 -8 -33 0
-13 -4 -23 -8 -23 -14 0 -42 -58 -42 -87 0 -16 -5 -34 -11 -40 -14 -14 -1 -60
21 -76 32 -22 60 -89 52 -121 -21 -78 -77 -50 -137 70 -53 104 -80 206 -64
237 17 31 71 98 165 204 45 50 85 101 89 114 7 22 8 22 23 -7 8 -16 45 -63 82
-104z"/>
<path d="M290 2682 c-21 -7 -24 -13 -21 -37 6 -51 49 -123 89 -149 20 -14 107
-49 192 -80 85 -30 186 -68 223 -85 86 -39 101 -39 117 -1 7 17 11 32 9 33 -2
2 -35 25 -74 52 -38 27 -122 88 -185 136 -63 48 -134 97 -158 109 -45 24 -147
35 -192 22z"/>
<path d="M2965 2681 c-52 -13 -107 -46 -225 -138 -63 -49 -143 -109 -177 -133
-35 -24 -63 -50 -63 -58 0 -20 19 -52 32 -52 6 0 65 22 132 49 67 27 170 66
229 86 128 45 177 77 204 136 36 78 37 98 8 109 -30 11 -95 12 -140 1z"/>
<path d="M220 2452 c-47 -6 -90 -23 -90 -36 0 -19 56 -93 85 -112 14 -9 154
-49 311 -89 l285 -73 16 24 c22 34 13 41 -122 99 -60 26 -168 77 -239 112
-123 62 -191 82 -246 75z"/>
<path d="M3060 2441 c-14 -5 -81 -37 -150 -71 -69 -35 -174 -85 -235 -110 -99
-43 -110 -50 -113 -75 -2 -15 1 -32 6 -37 10 -10 545 123 593 147 33 17 99 96
99 118 0 31 -130 49 -200 28z"/>
<path d="M175 2183 c-57 -12 -114 -36 -129 -52 -15 -17 -14 -21 13 -58 43 -60
89 -79 186 -75 70 2 266 -7 476 -23 75 -6 93 5 87 51 -3 27 -7 29 -88 45 -47
9 -142 33 -213 53 -203 59 -276 72 -332 59z"/>
<path d="M3115 2184 c-11 -3 -92 -25 -180 -50 -89 -24 -201 -52 -250 -62 l-90
-19 0 -39 0 -39 85 3 c47 1 150 7 230 12 80 6 183 9 230 8 102 -2 148 15 191
75 16 22 29 43 29 48 0 4 -24 19 -52 33 -52 25 -152 40 -193 30z"/>
<path d="M132 1911 c-52 -18 -104 -57 -124 -94 -13 -25 9 -49 75 -82 67 -33
151 -33 272 -1 131 35 206 47 335 55 l115 6 0 45 0 45 -165 7 c-91 3 -223 13
-295 22 -158 19 -148 19 -213 -3z"/>
<path d="M3050 1915 c-52 -8 -177 -17 -278 -21 -178 -7 -183 -8 -188 -30 -3
-12 -4 -33 -2 -45 3 -23 7 -24 118 -30 138 -7 170 -12 322 -50 139 -34 215
-37 278 -8 45 20 90 56 90 70 0 18 -65 81 -103 100 -52 27 -120 31 -237 14z"/>
<path d="M2159 1683 l-167 -3 -10 -43 c-6 -23 -8 -45 -4 -49 4 -4 223 -8 487
-10 466 -4 482 -4 539 -26 71 -26 116 -53 179 -104 l47 -39 60 23 c70 27 73
37 30 96 -104 144 -303 170 -1161 155z"/>
<path d="M387 1669 c-102 -15 -216 -50 -257 -80 -45 -33 -95 -102 -87 -121 2
-8 30 -24 61 -36 l55 -24 48 40 c26 22 75 54 108 71 119 59 135 61 637 61 251
0 459 3 462 8 2 4 -1 27 -7 50 l-11 42 -476 -1 c-261 -1 -501 -5 -533 -10z"/>
<path d="M555 1480 c-172 -21 -326 -104 -374 -203 -41 -85 -19 -166 55 -203
35 -17 67 -19 343 -22 l304 -3 33 32 c19 18 34 37 34 41 0 4 -135 8 -300 8
-326 0 -359 5 -381 54 -24 51 47 123 166 168 58 22 74 22 540 28 l480 5 -1 37
c-2 74 32 68 -426 67 -227 -1 -440 -5 -473 -9z"/>
<path d="M1936 1474 c-3 -9 -6 -33 -6 -55 l0 -39 458 0 c495 0 518 -2 629 -56
99 -48 136 -132 76 -171 -24 -16 -60 -18 -328 -21 -165 -1 -306 -5 -314 -8
-11 -3 -5 -14 20 -40 l34 -35 305 3 c294 3 306 4 347 26 55 29 77 70 71 134
-12 121 -152 224 -356 264 -56 11 -175 14 -502 14 -381 0 -429 -2 -434 -16z"/>
<path d="M477 1280 c-50 -9 -108 -37 -114 -57 -3 -7 11 -15 34 -20 48 -10 733
-9 868 1 95 7 101 9 127 38 15 17 25 35 22 40 -7 10 -873 8 -937 -2z"/>
<path d="M1977 1284 c-3 -4 5 -21 19 -39 24 -32 26 -32 137 -41 142 -10 823
-12 860 -1 41 11 33 35 -20 60 -47 22 -58 22 -519 25 -259 1 -473 -1 -477 -4z"/>
<path d="M1995 1065 c-228 -126 -374 -185 -598 -240 -163 -41 -257 -70 -377
-116 l-85 -33 -207 0 c-113 -1 -210 -4 -214 -8 -12 -13 45 -76 94 -105 43 -26
55 -28 147 -28 l100 1 200 80 c306 124 441 156 650 156 190 0 366 -44 645
-162 69 -29 148 -59 175 -66 104 -28 222 -11 291 41 44 34 72 74 56 84 -6 4
-99 5 -207 4 l-196 -3 -117 45 c-105 42 -283 92 -385 111 -68 12 -26 23 143
39 198 19 226 23 265 43 41 20 54 41 55 81 0 72 -85 116 -260 136 -54 6 -58 4
-175 -60z"/>
<path d="M276 982 c-3 -2 3 -19 12 -38 21 -45 38 -48 185 -40 l121 6 27 33
c23 28 25 33 10 38 -18 7 -349 8 -355 1z"/>
<path d="M2746 982 c-2 -4 10 -23 26 -41 l31 -35 108 -4 c139 -6 170 0 192 37
9 16 17 33 17 38 0 10 -368 15 -374 5z"/>
<path d="M740 937 c-57 -28 -100 -89 -107 -151 l-6 -46 35 0 c40 0 58 15 58
48 0 14 14 38 34 58 27 27 42 34 74 34 23 0 45 -6 52 -15 10 -12 9 -15 -7 -15
-33 0 -73 -38 -73 -70 0 -35 23 -54 58 -47 46 9 202 68 202 77 0 4 -17 10 -38
14 -48 7 -112 53 -141 100 -20 31 -28 36 -59 36 -20 -1 -57 -11 -82 -23z"/>
<path d="M2512 926 c-27 -46 -96 -95 -144 -102 -21 -4 -40 -10 -43 -13 -5 -9
193 -82 221 -81 68 1 50 98 -22 116 -19 5 -22 9 -13 20 15 18 63 18 99 -1 31
-16 52 -49 64 -98 6 -25 10 -28 44 -25 l37 3 -2 45 c-4 86 -95 170 -184 170
-32 0 -40 -5 -57 -34z"/>
<path d="M462 828 c-7 -7 -12 -24 -12 -38 0 -33 17 -50 50 -50 29 0 60 27 60
53 0 39 -69 64 -98 35z"/>
<path d="M2846 824 c-34 -33 -8 -84 43 -84 34 0 51 17 51 50 0 14 -5 31 -12
38 -17 17 -64 15 -82 -4z"/>
<path d="M1590 689 c-135 -16 -222 -79 -237 -172 -11 -68 12 -104 142 -232
109 -106 127 -129 161 -201 l38 -81 43 88 c39 79 54 98 154 191 118 110 149
155 149 215 0 44 -32 101 -73 134 -66 51 -230 77 -377 58z m-8 -139 c21 -6 51
-27 73 -51 l37 -41 39 40 c21 23 55 45 74 51 45 12 99 -2 120 -32 28 -41 12
-94 -20 -67 -45 37 -146 -34 -181 -127 -9 -26 -20 -52 -24 -56 -4 -4 -17 15
-28 43 -46 110 -114 164 -176 142 -44 -16 -46 -16 -46 14 0 38 18 64 53 79 39
17 34 17 79 5z"/>
<path d="M1235 609 c-90 -34 -155 -105 -155 -171 0 -45 40 -105 94 -143 50
-34 186 -85 271 -101 l40 -7 -87 84 c-100 97 -131 153 -130 235 0 28 7 66 16
82 9 17 13 33 8 35 -4 3 -29 -4 -57 -14z"/>
<path d="M2106 585 c41 -98 3 -201 -119 -318 l-81 -79 39 8 c80 14 221 66 271
99 52 34 94 98 94 143 0 31 -18 74 -43 101 -24 26 -132 81 -159 81 -15 0 -16
-3 -2 -35z"/>
<path d="M908 469 c-43 -21 -78 -43 -78 -47 0 -7 100 -52 148 -66 21 -7 22 -5
22 51 0 32 3 68 6 81 9 31 -7 28 -98 -19z"/>
<path d="M2388 433 c2 -43 6 -79 7 -81 6 -6 158 63 161 73 3 8 -150 85 -168
85 -3 0 -3 -35 0 -77z"/>
</g>
</svg>
